0, 0, Header, 0, 1, 16
1, 0, Start_track
1, 0, Tempo, 535714
1, 0, Control_c, 0, 7, 127
1, 0, Program_c, 0, 6
1, 0, Control_c, 0, 91, 64
1, 64, Control_c, 0, 10, 51
1, 64, Note_on_c, 0, 51, 127
1, 68, Note_on_c, 0, 51, 0
1, 68, Control_c, 0, 10, 48
1, 68, Note_on_c, 0, 48, 127
1, 72, Note_on_c, 0, 48, 0
1, 72, Control_c, 0, 10, 51
1, 72, Note_on_c, 0, 51, 127
1, 76, Note_on_c, 0, 51, 0
1, 76, Control_c, 0, 10, 55
1, 76, Note_on_c, 0, 55, 127
1, 80, Note_on_c, 0, 55, 0
1, 80, Control_c, 0, 10, 60
1, 80, Note_on_c, 0, 60, 127
1, 84, Note_on_c, 0, 60, 0
1, 84, Control_c, 0, 10, 63
1, 84, Note_on_c, 0, 63, 127
1, 88, Note_on_c, 0, 63, 0
1, 88, Control_c, 0, 10, 62
1, 88, Note_on_c, 0, 62, 127
1, 92, Note_on_c, 0, 62, 0
1, 92, Control_c, 0, 10, 60
1, 92, Note_on_c, 0, 60, 127
1, 96, Note_on_c, 0, 60, 0
1, 96, Control_c, 0, 10, 59
1, 96, Note_on_c, 0, 59, 127
1, 100, Note_on_c, 0, 59, 0
1, 100, Control_c, 0, 10, 55
1, 100, Note_on_c, 0, 55, 127
1, 104, Note_on_c, 0, 55, 0
1, 104, Control_c, 0, 10, 59
1, 104, Note_on_c, 0, 59, 127
1, 108, Note_on_c, 0, 59, 0
1, 108, Control_c, 0, 10, 62
1, 108, Note_on_c, 0, 62, 127
1, 112, Note_on_c, 0, 62, 0
1, 112, Control_c, 0, 10, 67
1, 112, Note_on_c, 0, 67, 127
1, 116, Note_on_c, 0, 67, 0
1, 116, Control_c, 0, 10, 65
1, 116, Note_on_c, 0, 65, 127
1, 120, Note_on_c, 0, 65, 0
1, 120, Control_c, 0, 10, 63
1, 120, Note_on_c, 0, 63, 127
1, 124, Note_on_c, 0, 63, 0
1, 124, Control_c, 0, 10, 62
1, 124, Note_on_c, 0, 62, 127
1, 128, Note_on_c, 0, 62, 0
1, 128, Control_c, 0, 10, 63
1, 128, Note_on_c, 0, 63, 127
1, 132, Note_on_c, 0, 63, 0
1, 132, Control_c, 0, 10, 60
1, 132, Note_on_c, 0, 60, 127
1, 136, Note_on_c, 0, 60, 0
1, 136, Control_c, 0, 10, 63
1, 136, Note_on_c, 0, 63, 127
1, 140, Note_on_c, 0, 63, 0
1, 140, Control_c, 0, 10, 67
1, 140, Note_on_c, 0, 67, 127
1, 144, Note_on_c, 0, 67, 0
1, 144, Control_c, 0, 10, 72
1, 144, Note_on_c, 0, 72, 127
1, 148, Note_on_c, 0, 72, 0
1, 148, Control_c, 0, 10, 75
1, 148, Note_on_c, 0, 75, 127
1, 152, Note_on_c, 0, 75, 0
1, 152, Control_c, 0, 10, 74
1, 152, Note_on_c, 0, 74, 127
1, 156, Note_on_c, 0, 74, 0
1, 156, Control_c, 0, 10, 72
1, 156, Note_on_c, 0, 72, 127
1, 160, Note_on_c, 0, 72, 0
1, 160, Control_c, 0, 10, 74
1, 160, Note_on_c, 0, 74, 127
1, 164, Note_on_c, 0, 74, 0
1, 164, Control_c, 0, 10, 72
1, 164, Note_on_c, 0, 72, 127
1, 168, Note_on_c, 0, 72, 0
1, 168, Control_c, 0, 10, 71
1, 168, Note_on_c, 0, 71, 127
1, 172, Note_on_c, 0, 71, 0
1, 172, Control_c, 0, 10, 69
1, 172, Note_on_c, 0, 69, 127
1, 176, Note_on_c, 0, 69, 0
1, 176, Control_c, 0, 10, 67
1, 176, Note_on_c, 0, 67, 127
1, 180, Note_on_c, 0, 67, 0
1, 180, Control_c, 0, 10, 65
1, 180, Note_on_c, 0, 65, 127
1, 184, Note_on_c, 0, 65, 0
1, 184, Control_c, 0, 10, 63
1, 184, Note_on_c, 0, 63, 127
1, 188, Note_on_c, 0, 63, 0
1, 188, Control_c, 0, 10, 62
1, 188, Note_on_c, 0, 62, 127
1, 192, Note_on_c, 0, 62, 0
1, 192, Control_c, 0, 10, 63
1, 192, Note_on_c, 0, 63, 127
1, 196, Note_on_c, 0, 63, 0
1, 196, Control_c, 0, 10, 60
1, 196, Note_on_c, 0, 60, 127
1, 200, Note_on_c, 0, 60, 0
1, 200, Control_c, 0, 10, 63
1, 200, Note_on_c, 0, 63, 127
1, 204, Note_on_c, 0, 63, 0
1, 204, Control_c, 0, 10, 67
1, 204, Note_on_c, 0, 67, 127
1, 208, Note_on_c, 0, 67, 0
1, 208, Control_c, 0, 10, 72
1, 208, Note_on_c, 0, 72, 127
1, 212, Note_on_c, 0, 72, 0
1, 212, Control_c, 0, 10, 75
1, 212, Note_on_c, 0, 75, 127
1, 216, Note_on_c, 0, 75, 0
1, 216, Control_c, 0, 10, 74
1, 216, Note_on_c, 0, 74, 127
1, 220, Note_on_c, 0, 74, 0
1, 220, Control_c, 0, 10, 72
1, 220, Note_on_c, 0, 72, 127
1, 224, Note_on_c, 0, 72, 0
1, 224, Control_c, 0, 10, 71
1, 224, Note_on_c, 0, 71, 127
1, 228, Note_on_c, 0, 71, 0
1, 228, Control_c, 0, 10, 67
1, 228, Note_on_c, 0, 67, 127
1, 232, Note_on_c, 0, 67, 0
1, 232, Control_c, 0, 10, 71
1, 232, Note_on_c, 0, 71, 127
1, 236, Note_on_c, 0, 71, 0
1, 236, Control_c, 0, 10, 74
1, 236, Note_on_c, 0, 74, 127
1, 240, Note_on_c, 0, 74, 0
1, 240, Control_c, 0, 10, 79
1, 240, Note_on_c, 0, 79, 127
1, 244, Note_on_c, 0, 79, 0
1, 244, Control_c, 0, 10, 77
1, 244, Note_on_c, 0, 77, 127
1, 248, Note_on_c, 0, 77, 0
1, 248, Control_c, 0, 10, 75
1, 248, Note_on_c, 0, 75, 127
1, 252, Note_on_c, 0, 75, 0
1, 252, Control_c, 0, 10, 74
1, 252, Note_on_c, 0, 74, 127
1, 256, Note_on_c, 0, 74, 0
1, 256, Control_c, 0, 10, 75
1, 256, Note_on_c, 0, 75, 127
1, 260, Note_on_c, 0, 75, 0
1, 260, Control_c, 0, 10, 72
1, 260, Note_on_c, 0, 72, 127
1, 264, Note_on_c, 0, 72, 0
1, 264, Control_c, 0, 10, 75
1, 264, Note_on_c, 0, 75, 127
1, 268, Note_on_c, 0, 75, 0
1, 268, Control_c, 0, 10, 79
1, 268, Note_on_c, 0, 79, 127
1, 272, Note_on_c, 0, 79, 0
1, 272, Control_c, 0, 10, 84
1, 272, Note_on_c, 0, 84, 127
1, 276, Note_on_c, 0, 84, 0
1, 276, Control_c, 0, 10, 87
1, 276, Note_on_c, 0, 87, 127
1, 280, Note_on_c, 0, 87, 0
1, 280, Control_c, 0, 10, 86
1, 280, Note_on_c, 0, 86, 127
1, 284, Note_on_c, 0, 86, 0
1, 284, Control_c, 0, 10, 84
1, 284, Note_on_c, 0, 84, 127
1, 288, Note_on_c, 0, 84, 0
1, 288, Control_c, 0, 10, 86
1, 288, Note_on_c, 0, 86, 127
1, 292, Note_on_c, 0, 86, 0
1, 292, Control_c, 0, 10, 84
1, 292, Note_on_c, 0, 84, 127
1, 296, Note_on_c, 0, 84, 0
1, 296, Control_c, 0, 10, 83
1, 296, Note_on_c, 0, 83, 127
1, 300, Note_on_c, 0, 83, 0
1, 300, Control_c, 0, 10, 81
1, 300, Note_on_c, 0, 81, 127
1, 304, Note_on_c, 0, 81, 0
1, 304, Control_c, 0, 10, 79
1, 304, Note_on_c, 0, 79, 127
1, 308, Note_on_c, 0, 79, 0
1, 308, Control_c, 0, 10, 77
1, 308, Note_on_c, 0, 77, 127
1, 312, Note_on_c, 0, 77, 0
1, 312, Control_c, 0, 10, 75
1, 312, Note_on_c, 0, 75, 127
1, 316, Note_on_c, 0, 75, 0
1, 316, Control_c, 0, 10, 74
1, 316, Note_on_c, 0, 74, 127
1, 320, Note_on_c, 0, 74, 0
1, 320, Control_c, 0, 10, 75
1, 320, Note_on_c, 0, 75, 127
1, 324, Note_on_c, 0, 75, 0
1, 324, Control_c, 0, 10, 72
1, 324, Note_on_c, 0, 72, 127
1, 328, Note_on_c, 0, 72, 0
1, 328, Control_c, 0, 10, 67
1, 328, Note_on_c, 0, 67, 127
1, 332, Note_on_c, 0, 67, 0
1, 332, Control_c, 0, 10, 63
1, 332, Note_on_c, 0, 63, 127
1, 336, Note_on_c, 0, 63, 0
1, 336, Control_c, 0, 10, 60
1, 336, Note_on_c, 0, 60, 127
1, 340, Note_on_c, 0, 60, 0
1, 340, Control_c, 0, 10, 84
1, 340, Note_on_c, 0, 84, 127
1, 344, Note_on_c, 0, 84, 0
1, 344, Control_c, 0, 10, 79
1, 344, Note_on_c, 0, 79, 127
1, 348, Note_on_c, 0, 79, 0
1, 348, Control_c, 0, 10, 75
1, 348, Note_on_c, 0, 75, 127
1, 352, Note_on_c, 0, 75, 0
1, 352, Control_c, 0, 10, 80
1, 352, Note_on_c, 0, 80, 127
1, 356, Note_on_c, 0, 80, 0
1, 356, Control_c, 0, 10, 53
1, 356, Note_on_c, 0, 53, 127
1, 360, Note_on_c, 0, 53, 0
1, 360, Control_c, 0, 10, 56
1, 360, Note_on_c, 0, 56, 127
1, 364, Note_on_c, 0, 56, 0
1, 364, Control_c, 0, 10, 60
1, 364, Note_on_c, 0, 60, 127
1, 368, Note_on_c, 0, 60, 0
1, 368, Control_c, 0, 10, 65
1, 368, Note_on_c, 0, 65, 127
1, 372, Note_on_c, 0, 65, 0
1, 372, Control_c, 0, 10, 68
1, 372, Note_on_c, 0, 68, 127
1, 376, Note_on_c, 0, 68, 0
1, 376, Control_c, 0, 10, 72
1, 376, Note_on_c, 0, 72, 127
1, 380, Note_on_c, 0, 72, 0
1, 380, Control_c, 0, 10, 75
1, 380, Note_on_c, 0, 75, 127
1, 384, Note_on_c, 0, 75, 0
1, 384, Control_c, 0, 10, 74
1, 384, Note_on_c, 0, 74, 127
1, 388, Note_on_c, 0, 74, 0
1, 388, Control_c, 0, 10, 70
1, 388, Note_on_c, 0, 70, 127
1, 392, Note_on_c, 0, 70, 0
1, 392, Control_c, 0, 10, 65
1, 392, Note_on_c, 0, 65, 127
1, 396, Note_on_c, 0, 65, 0
1, 396, Control_c, 0, 10, 62
1, 396, Note_on_c, 0, 62, 127
1, 400, Note_on_c, 0, 62, 0
1, 400, Control_c, 0, 10, 58
1, 400, Note_on_c, 0, 58, 127
1, 404, Note_on_c, 0, 58, 0
1, 404, Control_c, 0, 10, 82
1, 404, Note_on_c, 0, 82, 127
1, 408, Note_on_c, 0, 82, 0
1, 408, Control_c, 0, 10, 77
1, 408, Note_on_c, 0, 77, 127
1, 412, Note_on_c, 0, 77, 0
1, 412, Control_c, 0, 10, 74
1, 412, Note_on_c, 0, 74, 127
1, 416, Note_on_c, 0, 74, 0
1, 416, Control_c, 0, 10, 79
1, 416, Note_on_c, 0, 79, 127
1, 420, Note_on_c, 0, 79, 0
1, 420, Control_c, 0, 10, 51
1, 420, Note_on_c, 0, 51, 127
1, 424, Note_on_c, 0, 51, 0
1, 424, Control_c, 0, 10, 55
1, 424, Note_on_c, 0, 55, 127
1, 428, Note_on_c, 0, 55, 0
1, 428, Control_c, 0, 10, 58
1, 428, Note_on_c, 0, 58, 127
1, 432, Note_on_c, 0, 58, 0
1, 432, Control_c, 0, 10, 62
1, 432, Note_on_c, 0, 62, 127
1, 436, Note_on_c, 0, 62, 0
1, 436, Control_c, 0, 10, 67
1, 436, Note_on_c, 0, 67, 127
1, 440, Note_on_c, 0, 67, 0
1, 440, Control_c, 0, 10, 70
1, 440, Note_on_c, 0, 70, 127
1, 444, Note_on_c, 0, 70, 0
1, 444, Control_c, 0, 10, 74
1, 444, Note_on_c, 0, 74, 127
1, 448, Note_on_c, 0, 74, 0
1, 448, Control_c, 0, 10, 72
1, 448, Note_on_c, 0, 72, 127
1, 452, Note_on_c, 0, 72, 0
1, 452, Control_c, 0, 10, 69
1, 452, Note_on_c, 0, 69, 127
1, 456, Note_on_c, 0, 69, 0
1, 456, Control_c, 0, 10, 68
1, 456, Note_on_c, 0, 68, 127
1, 460, Note_on_c, 0, 68, 0
1, 460, Control_c, 0, 10, 69
1, 460, Note_on_c, 0, 69, 127
1, 464, Note_on_c, 0, 69, 0
1, 464, Control_c, 0, 10, 72
1, 464, Note_on_c, 0, 72, 127
1, 468, Note_on_c, 0, 72, 0
1, 468, Control_c, 0, 10, 69
1, 468, Note_on_c, 0, 69, 127
1, 472, Note_on_c, 0, 69, 0
1, 472, Control_c, 0, 10, 68
1, 472, Note_on_c, 0, 68, 127
1, 476, Note_on_c, 0, 68, 0
1, 476, Control_c, 0, 10, 69
1, 476, Note_on_c, 0, 69, 127
1, 480, Note_on_c, 0, 69, 0
1, 480, Control_c, 0, 10, 75
1, 480, Note_on_c, 0, 75, 127
1, 484, Note_on_c, 0, 75, 0
1, 484, Control_c, 0, 10, 72
1, 484, Note_on_c, 0, 72, 127
1, 488, Note_on_c, 0, 72, 0
1, 488, Control_c, 0, 10, 67
1, 488, Note_on_c, 0, 67, 127
1, 492, Note_on_c, 0, 67, 0
1, 492, Control_c, 0, 10, 69
1, 492, Note_on_c, 0, 69, 127
1, 496, Note_on_c, 0, 69, 0
1, 496, Control_c, 0, 10, 75
1, 496, Note_on_c, 0, 75, 127
1, 500, Note_on_c, 0, 75, 0
1, 500, Control_c, 0, 10, 72
1, 500, Note_on_c, 0, 72, 127
1, 504, Note_on_c, 0, 72, 0
1, 504, Control_c, 0, 10, 67
1, 504, Note_on_c, 0, 67, 127
1, 508, Note_on_c, 0, 67, 0
1, 508, Control_c, 0, 10, 69
1, 508, Note_on_c, 0, 69, 127
1, 512, Note_on_c, 0, 69, 0
1, 512, Control_c, 0, 10, 74
1, 512, Note_on_c, 0, 74, 127
1, 516, Note_on_c, 0, 74, 0
1, 516, Control_c, 0, 10, 72
1, 516, Note_on_c, 0, 72, 127
1, 520, Note_on_c, 0, 72, 0
1, 520, Control_c, 0, 10, 66
1, 520, Note_on_c, 0, 66, 127
1, 524, Note_on_c, 0, 66, 0
1, 524, Control_c, 0, 10, 69
1, 524, Note_on_c, 0, 69, 127
1, 528, Note_on_c, 0, 69, 0
1, 528, Control_c, 0, 10, 81
1, 528, Note_on_c, 0, 81, 127
1, 532, Note_on_c, 0, 81, 0
1, 532, Control_c, 0, 10, 72
1, 532, Note_on_c, 0, 72, 127
1, 536, Note_on_c, 0, 72, 0
1, 536, Control_c, 0, 10, 66
1, 536, Note_on_c, 0, 66, 127
1, 540, Note_on_c, 0, 66, 0
1, 540, Control_c, 0, 10, 69
1, 540, Note_on_c, 0, 69, 127
1, 544, Note_on_c, 0, 69, 0
1, 544, Control_c, 0, 10, 78
1, 544, Note_on_c, 0, 78, 127
1, 548, Note_on_c, 0, 78, 0
1, 548, Control_c, 0, 10, 72
1, 548, Note_on_c, 0, 72, 127
1, 552, Note_on_c, 0, 72, 0
1, 552, Control_c, 0, 10, 62
1, 552, Note_on_c, 0, 62, 127
1, 556, Note_on_c, 0, 62, 0
1, 556, Control_c, 0, 10, 69
1, 556, Note_on_c, 0, 69, 127
1, 560, Note_on_c, 0, 69, 0
1, 560, Control_c, 0, 10, 72
1, 560, Note_on_c, 0, 72, 127
1, 564, Note_on_c, 0, 72, 0
1, 564, Control_c, 0, 10, 69
1, 564, Note_on_c, 0, 69, 127
1, 568, Note_on_c, 0, 69, 0
1, 568, Control_c, 0, 10, 66
1, 568, Note_on_c, 0, 66, 127
1, 572, Note_on_c, 0, 66, 0
1, 572, Control_c, 0, 10, 60
1, 572, Note_on_c, 0, 60, 127
1, 576, Note_on_c, 0, 60, 0
1, 576, Control_c, 0, 10, 67
1, 576, Note_on_c, 0, 67, 127
1, 580, Note_on_c, 0, 67, 0
1, 580, Control_c, 0, 10, 43
1, 580, Note_on_c, 0, 43, 127
1, 584, Note_on_c, 0, 43, 0
1, 584, Control_c, 0, 10, 46
1, 584, Note_on_c, 0, 46, 127
1, 588, Note_on_c, 0, 46, 0
1, 588, Control_c, 0, 10, 50
1, 588, Note_on_c, 0, 50, 127
1, 592, Note_on_c, 0, 50, 0
1, 592, Control_c, 0, 10, 55
1, 592, Note_on_c, 0, 55, 127
1, 596, Note_on_c, 0, 55, 0
1, 596, Control_c, 0, 10, 58
1, 596, Note_on_c, 0, 58, 127
1, 600, Note_on_c, 0, 58, 0
1, 600, Control_c, 0, 10, 57
1, 600, Note_on_c, 0, 57, 127
1, 604, Note_on_c, 0, 57, 0
1, 604, Control_c, 0, 10, 55
1, 604, Note_on_c, 0, 55, 127
1, 608, Note_on_c, 0, 55, 0
1, 608, Control_c, 0, 10, 54
1, 608, Note_on_c, 0, 54, 127
1, 612, Note_on_c, 0, 54, 0
1, 612, Control_c, 0, 10, 50
1, 612, Note_on_c, 0, 50, 127
1, 616, Note_on_c, 0, 50, 0
1, 616, Control_c, 0, 10, 54
1, 616, Note_on_c, 0, 54, 127
1, 620, Note_on_c, 0, 54, 0
1, 620, Control_c, 0, 10, 57
1, 620, Note_on_c, 0, 57, 127
1, 624, Note_on_c, 0, 57, 0
1, 624, Control_c, 0, 10, 62
1, 624, Note_on_c, 0, 62, 127
1, 628, Note_on_c, 0, 62, 0
1, 628, Control_c, 0, 10, 60
1, 628, Note_on_c, 0, 60, 127
1, 632, Note_on_c, 0, 60, 0
1, 632, Control_c, 0, 10, 58
1, 632, Note_on_c, 0, 58, 127
1, 636, Note_on_c, 0, 58, 0
1, 636, Control_c, 0, 10, 57
1, 636, Note_on_c, 0, 57, 127
1, 640, Note_on_c, 0, 57, 0
1, 640, Control_c, 0, 10, 58
1, 640, Note_on_c, 0, 58, 127
1, 644, Note_on_c, 0, 58, 0
1, 644, Control_c, 0, 10, 55
1, 644, Note_on_c, 0, 55, 127
1, 648, Note_on_c, 0, 55, 0
1, 648, Control_c, 0, 10, 58
1, 648, Note_on_c, 0, 58, 127
1, 652, Note_on_c, 0, 58, 0
1, 652, Control_c, 0, 10, 62
1, 652, Note_on_c, 0, 62, 127
1, 656, Note_on_c, 0, 62, 0
1, 656, Control_c, 0, 10, 67
1, 656, Note_on_c, 0, 67, 127
1, 660, Note_on_c, 0, 67, 0
1, 660, Control_c, 0, 10, 70
1, 660, Note_on_c, 0, 70, 127
1, 664, Note_on_c, 0, 70, 0
1, 664, Control_c, 0, 10, 69
1, 664, Note_on_c, 0, 69, 127
1, 668, Note_on_c, 0, 69, 0
1, 668, Control_c, 0, 10, 67
1, 668, Note_on_c, 0, 67, 127
1, 672, Note_on_c, 0, 67, 0
1, 672, Control_c, 0, 10, 69
1, 672, Note_on_c, 0, 69, 127
1, 676, Note_on_c, 0, 69, 0
1, 676, Control_c, 0, 10, 67
1, 676, Note_on_c, 0, 67, 127
1, 680, Note_on_c, 0, 67, 0
1, 680, Control_c, 0, 10, 66
1, 680, Note_on_c, 0, 66, 127
1, 684, Note_on_c, 0, 66, 0
1, 684, Control_c, 0, 10, 64
1, 684, Note_on_c, 0, 64, 127
1, 688, Note_on_c, 0, 64, 0
1, 688, Control_c, 0, 10, 62
1, 688, Note_on_c, 0, 62, 127
1, 692, Note_on_c, 0, 62, 0
1, 692, Control_c, 0, 10, 60
1, 692, Note_on_c, 0, 60, 127
1, 696, Note_on_c, 0, 60, 0
1, 696, Control_c, 0, 10, 58
1, 696, Note_on_c, 0, 58, 127
1, 700, Note_on_c, 0, 58, 0
1, 700, Control_c, 0, 10, 57
1, 700, Note_on_c, 0, 57, 127
1, 704, Note_on_c, 0, 57, 0
1, 704, Control_c, 0, 10, 58
1, 704, Note_on_c, 0, 58, 127
1, 708, Note_on_c, 0, 58, 0
1, 708, Control_c, 0, 10, 55
1, 708, Note_on_c, 0, 55, 127
1, 712, Note_on_c, 0, 55, 0
1, 712, Control_c, 0, 10, 58
1, 712, Note_on_c, 0, 58, 127
1, 716, Note_on_c, 0, 58, 0
1, 716, Control_c, 0, 10, 62
1, 716, Note_on_c, 0, 62, 127
1, 720, Note_on_c, 0, 62, 0
1, 720, Control_c, 0, 10, 67
1, 720, Note_on_c, 0, 67, 127
1, 724, Note_on_c, 0, 67, 0
1, 724, Control_c, 0, 10, 70
1, 724, Note_on_c, 0, 70, 127
1, 728, Note_on_c, 0, 70, 0
1, 728, Control_c, 0, 10, 69
1, 728, Note_on_c, 0, 69, 127
1, 732, Note_on_c, 0, 69, 0
1, 732, Control_c, 0, 10, 67
1, 732, Note_on_c, 0, 67, 127
1, 736, Note_on_c, 0, 67, 0
1, 736, Control_c, 0, 10, 66
1, 736, Note_on_c, 0, 66, 127
1, 740, Note_on_c, 0, 66, 0
1, 740, Control_c, 0, 10, 62
1, 740, Note_on_c, 0, 62, 127
1, 744, Note_on_c, 0, 62, 0
1, 744, Control_c, 0, 10, 66
1, 744, Note_on_c, 0, 66, 127
1, 748, Note_on_c, 0, 66, 0
1, 748, Control_c, 0, 10, 69
1, 748, Note_on_c, 0, 69, 127
1, 752, Note_on_c, 0, 69, 0
1, 752, Control_c, 0, 10, 74
1, 752, Note_on_c, 0, 74, 127
1, 756, Note_on_c, 0, 74, 0
1, 756, Control_c, 0, 10, 72
1, 756, Note_on_c, 0, 72, 127
1, 760, Note_on_c, 0, 72, 0
1, 760, Control_c, 0, 10, 70
1, 760, Note_on_c, 0, 70, 127
1, 764, Note_on_c, 0, 70, 0
1, 764, Control_c, 0, 10, 69
1, 764, Note_on_c, 0, 69, 127
1, 768, Note_on_c, 0, 69, 0
1, 768, Control_c, 0, 10, 70
1, 768, Note_on_c, 0, 70, 127
1, 772, Note_on_c, 0, 70, 0
1, 772, Control_c, 0, 10, 67
1, 772, Note_on_c, 0, 67, 127
1, 776, Note_on_c, 0, 67, 0
1, 776, Control_c, 0, 10, 70
1, 776, Note_on_c, 0, 70, 127
1, 780, Note_on_c, 0, 70, 0
1, 780, Control_c, 0, 10, 74
1, 780, Note_on_c, 0, 74, 127
1, 784, Note_on_c, 0, 74, 0
1, 784, Control_c, 0, 10, 79
1, 784, Note_on_c, 0, 79, 127
1, 788, Note_on_c, 0, 79, 0
1, 788, Control_c, 0, 10, 82
1, 788, Note_on_c, 0, 82, 127
1, 792, Note_on_c, 0, 82, 0
1, 792, Control_c, 0, 10, 81
1, 792, Note_on_c, 0, 81, 127
1, 796, Note_on_c, 0, 81, 0
1, 796, Control_c, 0, 10, 79
1, 796, Note_on_c, 0, 79, 127
1, 800, Note_on_c, 0, 79, 0
1, 800, Control_c, 0, 10, 81
1, 800, Note_on_c, 0, 81, 127
1, 804, Note_on_c, 0, 81, 0
1, 804, Control_c, 0, 10, 79
1, 804, Note_on_c, 0, 79, 127
1, 808, Note_on_c, 0, 79, 0
1, 808, Control_c, 0, 10, 78
1, 808, Note_on_c, 0, 78, 127
1, 812, Note_on_c, 0, 78, 0
1, 812, Control_c, 0, 10, 76
1, 812, Note_on_c, 0, 76, 127
1, 816, Note_on_c, 0, 76, 0
1, 816, Control_c, 0, 10, 74
1, 816, Note_on_c, 0, 74, 127
1, 820, Note_on_c, 0, 74, 0
1, 820, Control_c, 0, 10, 72
1, 820, Note_on_c, 0, 72, 127
1, 824, Note_on_c, 0, 72, 0
1, 824, Control_c, 0, 10, 70
1, 824, Note_on_c, 0, 70, 127
1, 828, Note_on_c, 0, 70, 0
1, 828, Control_c, 0, 10, 69
1, 828, Note_on_c, 0, 69, 127
1, 832, Note_on_c, 0, 69, 0
1, 832, Control_c, 0, 10, 70
1, 832, Control_c, 0, 10, 55
1, 832, Control_c, 0, 10, 43
1, 832, Note_on_c, 0, 70, 127
1, 832, Note_on_c, 0, 55, 127
1, 832, Note_on_c, 0, 43, 127
1, 836, Note_on_c, 0, 70, 0
1, 836, Control_c, 0, 10, 67
1, 836, Note_on_c, 0, 67, 127
1, 840, Note_on_c, 0, 67, 0
1, 840, Control_c, 0, 10, 70
1, 840, Note_on_c, 0, 70, 127
1, 844, Note_on_c, 0, 70, 0
1, 844, Control_c, 0, 10, 74
1, 844, Note_on_c, 0, 74, 127
1, 848, Note_on_c, 0, 74, 0
1, 848, Control_c, 0, 10, 79
1, 848, Note_on_c, 0, 79, 127
1, 852, Note_on_c, 0, 79, 0
1, 852, Control_c, 0, 10, 74
1, 852, Note_on_c, 0, 74, 127
1, 856, Note_on_c, 0, 74, 0
1, 856, Control_c, 0, 10, 70
1, 856, Note_on_c, 0, 70, 127
1, 860, Note_on_c, 0, 70, 0
1, 860, Control_c, 0, 10, 67
1, 860, Note_on_c, 0, 67, 127
1, 864, Note_on_c, 0, 67, 0
1, 864, Note_on_c, 0, 55, 0
1, 864, Note_on_c, 0, 43, 0
1, 864, Control_c, 0, 10, 41
1, 864, Control_c, 0, 10, 53
1, 864, Note_on_c, 0, 41, 127
1, 864, Note_on_c, 0, 53, 127
1, 868, Control_c, 0, 10, 79
1, 868, Note_on_c, 0, 79, 127
1, 872, Note_on_c, 0, 79, 0
1, 872, Control_c, 0, 10, 74
1, 872, Note_on_c, 0, 74, 127
1, 876, Note_on_c, 0, 74, 0
1, 876, Control_c, 0, 10, 71
1, 876, Note_on_c, 0, 71, 127
1, 880, Note_on_c, 0, 71, 0
1, 880, Control_c, 0, 10, 67
1, 880, Note_on_c, 0, 67, 127
1, 884, Note_on_c, 0, 67, 0
1, 884, Control_c, 0, 10, 71
1, 884, Note_on_c, 0, 71, 127
1, 888, Note_on_c, 0, 71, 0
1, 888, Control_c, 0, 10, 74
1, 888, Note_on_c, 0, 74, 127
1, 892, Note_on_c, 0, 74, 0
1, 892, Control_c, 0, 10, 79
1, 892, Note_on_c, 0, 79, 127
1, 896, Note_on_c, 0, 79, 0
1, 896, Note_on_c, 0, 41, 0
1, 896, Note_on_c, 0, 53, 0
1, 896, Control_c, 0, 10, 72
1, 896, Control_c, 0, 10, 63
1, 896, Note_on_c, 0, 72, 127
1, 896, Note_on_c, 0, 63, 127
1, 900, Control_c, 0, 10, 67
1, 900, Note_on_c, 0, 67, 127
1, 904, Note_on_c, 0, 67, 0
1, 904, Control_c, 0, 10, 79
1, 904, Note_on_c, 0, 79, 127
1, 908, Note_on_c, 0, 79, 0
1, 908, Control_c, 0, 10, 67
1, 908, Note_on_c, 0, 67, 127
1, 912, Note_on_c, 0, 72, 0
1, 912, Note_on_c, 0, 63, 0
1, 912, Note_on_c, 0, 67, 0
1, 912, Control_c, 0, 10, 63
1, 912, Control_c, 0, 10, 72
1, 912, Note_on_c, 0, 63, 127
1, 912, Note_on_c, 0, 72, 127
1, 916, Control_c, 0, 10, 67
1, 916, Note_on_c, 0, 67, 127
1, 920, Note_on_c, 0, 67, 0
1, 920, Control_c, 0, 10, 79
1, 920, Note_on_c, 0, 79, 127
1, 924, Note_on_c, 0, 79, 0
1, 924, Control_c, 0, 10, 67
1, 924, Note_on_c, 0, 67, 127
1, 928, Note_on_c, 0, 63, 0
1, 928, Note_on_c, 0, 72, 0
1, 928, Note_on_c, 0, 67, 0
1, 928, Control_c, 0, 10, 71
1, 928, Control_c, 0, 10, 62
1, 928, Note_on_c, 0, 71, 127
1, 928, Note_on_c, 0, 62, 127
1, 932, Control_c, 0, 10, 67
1, 932, Note_on_c, 0, 67, 127
1, 936, Note_on_c, 0, 67, 0
1, 936, Control_c, 0, 10, 77
1, 936, Note_on_c, 0, 77, 127
1, 940, Note_on_c, 0, 77, 0
1, 940, Control_c, 0, 10, 67
1, 940, Note_on_c, 0, 67, 127
1, 944, Note_on_c, 0, 71, 0
1, 944, Note_on_c, 0, 62, 0
1, 944, Note_on_c, 0, 67, 0
1, 944, Control_c, 0, 10, 71
1, 944, Control_c, 0, 10, 62
1, 944, Note_on_c, 0, 71, 127
1, 944, Note_on_c, 0, 62, 127
1, 948, Control_c, 0, 10, 67
1, 948, Note_on_c, 0, 67, 127
1, 952, Note_on_c, 0, 67, 0
1, 952, Control_c, 0, 10, 77
1, 952, Note_on_c, 0, 77, 127
1, 956, Note_on_c, 0, 77, 0
1, 956, Control_c, 0, 10, 67
1, 956, Note_on_c, 0, 67, 127
1, 960, Note_on_c, 0, 71, 0
1, 960, Note_on_c, 0, 62, 0
1, 960, Note_on_c, 0, 67, 0
1, 960, Control_c, 0, 10, 60
1, 960, Control_c, 0, 10, 48
1, 960, Control_c, 0, 10, 75
1, 960, Note_on_c, 0, 60, 127
1, 960, Note_on_c, 0, 48, 127
1, 960, Note_on_c, 0, 75, 127
1, 964, Note_on_c, 0, 75, 0
1, 964, Control_c, 0, 10, 72
1, 964, Note_on_c, 0, 72, 127
1, 968, Note_on_c, 0, 72, 0
1, 968, Control_c, 0, 10, 75
1, 968, Note_on_c, 0, 75, 127
1, 972, Note_on_c, 0, 75, 0
1, 972, Control_c, 0, 10, 79
1, 972, Note_on_c, 0, 79, 127
1, 976, Note_on_c, 0, 79, 0
1, 976, Control_c, 0, 10, 84
1, 976, Note_on_c, 0, 84, 127
1, 980, Note_on_c, 0, 84, 0
1, 980, Control_c, 0, 10, 79
1, 980, Note_on_c, 0, 79, 127
1, 984, Note_on_c, 0, 79, 0
1, 984, Control_c, 0, 10, 76
1, 984, Note_on_c, 0, 76, 127
1, 988, Note_on_c, 0, 76, 0
1, 988, Control_c, 0, 10, 72
1, 988, Note_on_c, 0, 72, 127
1, 992, Note_on_c, 0, 60, 0
1, 992, Note_on_c, 0, 48, 0
1, 992, Note_on_c, 0, 72, 0
1, 992, Control_c, 0, 10, 58
1, 992, Control_c, 0, 10, 46
1, 992, Note_on_c, 0, 58, 127
1, 992, Note_on_c, 0, 46, 127
1, 996, Control_c, 0, 10, 84
1, 996, Note_on_c, 0, 84, 127
1, 1000, Note_on_c, 0, 84, 0
1, 1000, Control_c, 0, 10, 79
1, 1000, Note_on_c, 0, 79, 127
1, 1004, Note_on_c, 0, 79, 0
1, 1004, Control_c, 0, 10, 76
1, 1004, Note_on_c, 0, 76, 127
1, 1008, Note_on_c, 0, 76, 0
1, 1008, Control_c, 0, 10, 72
1, 1008, Note_on_c, 0, 72, 127
1, 1012, Note_on_c, 0, 72, 0
1, 1012, Control_c, 0, 10, 76
1, 1012, Note_on_c, 0, 76, 127
1, 1016, Note_on_c, 0, 76, 0
1, 1016, Control_c, 0, 10, 79
1, 1016, Note_on_c, 0, 79, 127
1, 1020, Note_on_c, 0, 79, 0
1, 1020, Control_c, 0, 10, 84
1, 1020, Note_on_c, 0, 84, 127
1, 1024, Note_on_c, 0, 58, 0
1, 1024, Note_on_c, 0, 46, 0
1, 1024, Note_on_c, 0, 84, 0
1, 1024, Control_c, 0, 10, 77
1, 1024, Control_c, 0, 10, 68
1, 1024, Note_on_c, 0, 77, 127
1, 1024, Note_on_c, 0, 68, 127
1, 1028, Control_c, 0, 10, 72
1, 1028, Note_on_c, 0, 72, 127
1, 1032, Note_on_c, 0, 72, 0
1, 1032, Control_c, 0, 10, 84
1, 1032, Note_on_c, 0, 84, 127
1, 1036, Note_on_c, 0, 84, 0
1, 1036, Control_c, 0, 10, 72
1, 1036, Note_on_c, 0, 72, 127
1, 1040, Note_on_c, 0, 77, 0
1, 1040, Note_on_c, 0, 68, 0
1, 1040, Note_on_c, 0, 72, 0
1, 1040, Control_c, 0, 10, 68
1, 1040, Control_c, 0, 10, 77
1, 1040, Note_on_c, 0, 68, 127
1, 1040, Note_on_c, 0, 77, 127
1, 1044, Control_c, 0, 10, 72
1, 1044, Note_on_c, 0, 72, 127
1, 1048, Note_on_c, 0, 72, 0
1, 1048, Control_c, 0, 10, 84
1, 1048, Note_on_c, 0, 84, 127
1, 1052, Note_on_c, 0, 84, 0
1, 1052, Control_c, 0, 10, 72
1, 1052, Note_on_c, 0, 72, 127
1, 1056, Note_on_c, 0, 68, 0
1, 1056, Note_on_c, 0, 77, 0
1, 1056, Note_on_c, 0, 72, 0
1, 1056, Control_c, 0, 10, 76
1, 1056, Control_c, 0, 10, 67
1, 1056, Note_on_c, 0, 76, 127
1, 1056, Note_on_c, 0, 67, 127
1, 1060, Control_c, 0, 10, 72
1, 1060, Note_on_c, 0, 72, 127
1, 1064, Note_on_c, 0, 72, 0
1, 1064, Control_c, 0, 10, 82
1, 1064, Note_on_c, 0, 82, 127
1, 1068, Note_on_c, 0, 82, 0
1, 1068, Control_c, 0, 10, 72
1, 1068, Note_on_c, 0, 72, 127
1, 1072, Note_on_c, 0, 76, 0
1, 1072, Note_on_c, 0, 67, 0
1, 1072, Note_on_c, 0, 72, 0
1, 1072, Control_c, 0, 10, 76
1, 1072, Control_c, 0, 10, 67
1, 1072, Note_on_c, 0, 76, 127
1, 1072, Note_on_c, 0, 67, 127
1, 1076, Control_c, 0, 10, 72
1, 1076, Note_on_c, 0, 72, 127
1, 1080, Note_on_c, 0, 72, 0
1, 1080, Control_c, 0, 10, 82
1, 1080, Note_on_c, 0, 82, 127
1, 1084, Note_on_c, 0, 82, 0
1, 1084, Control_c, 0, 10, 72
1, 1084, Note_on_c, 0, 72, 127
1, 1088, Note_on_c, 0, 76, 0
1, 1088, Note_on_c, 0, 67, 0
1, 1088, Note_on_c, 0, 72, 0
1, 1088, Control_c, 0, 10, 80
1, 1088, Note_on_c, 0, 80, 127
1, 1092, Note_on_c, 0, 80, 0
1, 1092, Control_c, 0, 10, 41
1, 1092, Note_on_c, 0, 41, 127
1, 1096, Note_on_c, 0, 41, 0
1, 1096, Control_c, 0, 10, 44
1, 1096, Note_on_c, 0, 44, 127
1, 1100, Note_on_c, 0, 44, 0
1, 1100, Control_c, 0, 10, 48
1, 1100, Note_on_c, 0, 48, 127
1, 1104, Note_on_c, 0, 48, 0
1, 1104, Control_c, 0, 10, 53
1, 1104, Note_on_c, 0, 53, 127
1, 1108, Note_on_c, 0, 53, 0
1, 1108, Control_c, 0, 10, 56
1, 1108, Note_on_c, 0, 56, 127
1, 1112, Note_on_c, 0, 56, 0
1, 1112, Control_c, 0, 10, 55
1, 1112, Note_on_c, 0, 55, 127
1, 1116, Note_on_c, 0, 55, 0
1, 1116, Control_c, 0, 10, 53
1, 1116, Note_on_c, 0, 53, 127
1, 1120, Note_on_c, 0, 53, 0
1, 1120, Control_c, 0, 10, 52
1, 1120, Note_on_c, 0, 52, 127
1, 1124, Note_on_c, 0, 52, 0
1, 1124, Control_c, 0, 10, 48
1, 1124, Note_on_c, 0, 48, 127
1, 1128, Note_on_c, 0, 48, 0
1, 1128, Control_c, 0, 10, 52
1, 1128, Note_on_c, 0, 52, 127
1, 1132, Note_on_c, 0, 52, 0
1, 1132, Control_c, 0, 10, 55
1, 1132, Note_on_c, 0, 55, 127
1, 1136, Note_on_c, 0, 55, 0
1, 1136, Control_c, 0, 10, 60
1, 1136, Note_on_c, 0, 60, 127
1, 1140, Note_on_c, 0, 60, 0
1, 1140, Control_c, 0, 10, 58
1, 1140, Note_on_c, 0, 58, 127
1, 1144, Note_on_c, 0, 58, 0
1, 1144, Control_c, 0, 10, 56
1, 1144, Note_on_c, 0, 56, 127
1, 1148, Note_on_c, 0, 56, 0
1, 1148, Control_c, 0, 10, 55
1, 1148, Note_on_c, 0, 55, 127
1, 1152, Note_on_c, 0, 55, 0
1, 1152, Control_c, 0, 10, 56
1, 1152, Note_on_c, 0, 56, 127
1, 1156, Note_on_c, 0, 56, 0
1, 1156, Control_c, 0, 10, 53
1, 1156, Note_on_c, 0, 53, 127
1, 1160, Note_on_c, 0, 53, 0
1, 1160, Control_c, 0, 10, 56
1, 1160, Note_on_c, 0, 56, 127
1, 1164, Note_on_c, 0, 56, 0
1, 1164, Control_c, 0, 10, 60
1, 1164, Note_on_c, 0, 60, 127
1, 1168, Note_on_c, 0, 60, 0
1, 1168, Control_c, 0, 10, 65
1, 1168, Note_on_c, 0, 65, 127
1, 1172, Note_on_c, 0, 65, 0
1, 1172, Control_c, 0, 10, 68
1, 1172, Note_on_c, 0, 68, 127
1, 1176, Note_on_c, 0, 68, 0
1, 1176, Control_c, 0, 10, 67
1, 1176, Note_on_c, 0, 67, 127
1, 1180, Note_on_c, 0, 67, 0
1, 1180, Control_c, 0, 10, 65
1, 1180, Note_on_c, 0, 65, 127
1, 1184, Note_on_c, 0, 65, 0
1, 1184, Control_c, 0, 10, 67
1, 1184, Note_on_c, 0, 67, 127
1, 1188, Note_on_c, 0, 67, 0
1, 1188, Control_c, 0, 10, 65
1, 1188, Note_on_c, 0, 65, 127
1, 1192, Note_on_c, 0, 65, 0
1, 1192, Control_c, 0, 10, 64
1, 1192, Note_on_c, 0, 64, 127
1, 1196, Note_on_c, 0, 64, 0
1, 1196, Control_c, 0, 10, 62
1, 1196, Note_on_c, 0, 62, 127
1, 1200, Note_on_c, 0, 62, 0
1, 1200, Control_c, 0, 10, 60
1, 1200, Note_on_c, 0, 60, 127
1, 1204, Note_on_c, 0, 60, 0
1, 1204, Control_c, 0, 10, 58
1, 1204, Note_on_c, 0, 58, 127
1, 1208, Note_on_c, 0, 58, 0
1, 1208, Control_c, 0, 10, 56
1, 1208, Note_on_c, 0, 56, 127
1, 1212, Note_on_c, 0, 56, 0
1, 1212, Control_c, 0, 10, 55
1, 1212, Note_on_c, 0, 55, 127
1, 1216, Note_on_c, 0, 55, 0
1, 1216, Control_c, 0, 10, 56
1, 1216, Note_on_c, 0, 56, 127
1, 1220, Note_on_c, 0, 56, 0
1, 1220, Control_c, 0, 10, 53
1, 1220, Note_on_c, 0, 53, 127
1, 1224, Note_on_c, 0, 53, 0
1, 1224, Control_c, 0, 10, 56
1, 1224, Note_on_c, 0, 56, 127
1, 1228, Note_on_c, 0, 56, 0
1, 1228, Control_c, 0, 10, 60
1, 1228, Note_on_c, 0, 60, 127
1, 1232, Note_on_c, 0, 60, 0
1, 1232, Control_c, 0, 10, 65
1, 1232, Note_on_c, 0, 65, 127
1, 1236, Note_on_c, 0, 65, 0
1, 1236, Control_c, 0, 10, 68
1, 1236, Note_on_c, 0, 68, 127
1, 1240, Note_on_c, 0, 68, 0
1, 1240, Control_c, 0, 10, 67
1, 1240, Note_on_c, 0, 67, 127
1, 1244, Note_on_c, 0, 67, 0
1, 1244, Control_c, 0, 10, 65
1, 1244, Note_on_c, 0, 65, 127
1, 1248, Note_on_c, 0, 65, 0
1, 1248, Control_c, 0, 10, 64
1, 1248, Note_on_c, 0, 64, 127
1, 1252, Note_on_c, 0, 64, 0
1, 1252, Control_c, 0, 10, 60
1, 1252, Note_on_c, 0, 60, 127
1, 1256, Note_on_c, 0, 60, 0
1, 1256, Control_c, 0, 10, 64
1, 1256, Note_on_c, 0, 64, 127
1, 1260, Note_on_c, 0, 64, 0
1, 1260, Control_c, 0, 10, 67
1, 1260, Note_on_c, 0, 67, 127
1, 1264, Note_on_c, 0, 67, 0
1, 1264, Control_c, 0, 10, 72
1, 1264, Note_on_c, 0, 72, 127
1, 1268, Note_on_c, 0, 72, 0
1, 1268, Control_c, 0, 10, 70
1, 1268, Note_on_c, 0, 70, 127
1, 1272, Note_on_c, 0, 70, 0
1, 1272, Control_c, 0, 10, 68
1, 1272, Note_on_c, 0, 68, 127
1, 1276, Note_on_c, 0, 68, 0
1, 1276, Control_c, 0, 10, 67
1, 1276, Note_on_c, 0, 67, 127
1, 1280, Note_on_c, 0, 67, 0
1, 1280, Control_c, 0, 10, 68
1, 1280, Note_on_c, 0, 68, 127
1, 1284, Note_on_c, 0, 68, 0
1, 1284, Control_c, 0, 10, 65
1, 1284, Note_on_c, 0, 65, 127
1, 1288, Note_on_c, 0, 65, 0
1, 1288, Control_c, 0, 10, 68
1, 1288, Note_on_c, 0, 68, 127
1, 1292, Note_on_c, 0, 68, 0
1, 1292, Control_c, 0, 10, 72
1, 1292, Note_on_c, 0, 72, 127
1, 1296, Note_on_c, 0, 72, 0
1, 1296, Control_c, 0, 10, 77
1, 1296, Note_on_c, 0, 77, 127
1, 1300, Note_on_c, 0, 77, 0
1, 1300, Control_c, 0, 10, 80
1, 1300, Note_on_c, 0, 80, 127
1, 1304, Note_on_c, 0, 80, 0
1, 1304, Control_c, 0, 10, 79
1, 1304, Note_on_c, 0, 79, 127
1, 1308, Note_on_c, 0, 79, 0
1, 1308, Control_c, 0, 10, 77
1, 1308, Note_on_c, 0, 77, 127
1, 1312, Note_on_c, 0, 77, 0
1, 1312, Control_c, 0, 10, 79
1, 1312, Note_on_c, 0, 79, 127
1, 1316, Note_on_c, 0, 79, 0
1, 1316, Control_c, 0, 10, 77
1, 1316, Note_on_c, 0, 77, 127
1, 1320, Note_on_c, 0, 77, 0
1, 1320, Control_c, 0, 10, 76
1, 1320, Note_on_c, 0, 76, 127
1, 1324, Note_on_c, 0, 76, 0
1, 1324, Control_c, 0, 10, 74
1, 1324, Note_on_c, 0, 74, 127
1, 1328, Note_on_c, 0, 74, 0
1, 1328, Control_c, 0, 10, 72
1, 1328, Note_on_c, 0, 72, 127
1, 1332, Note_on_c, 0, 72, 0
1, 1332, Control_c, 0, 10, 70
1, 1332, Note_on_c, 0, 70, 127
1, 1336, Note_on_c, 0, 70, 0
1, 1336, Control_c, 0, 10, 68
1, 1336, Note_on_c, 0, 68, 127
1, 1340, Note_on_c, 0, 68, 0
1, 1340, Control_c, 0, 10, 67
1, 1340, Note_on_c, 0, 67, 127
1, 1344, Note_on_c, 0, 67, 0
1, 1344, Control_c, 0, 10, 68
1, 1344, Note_on_c, 0, 68, 127
1, 1348, Note_on_c, 0, 68, 0
1, 1348, Control_c, 0, 10, 77
1, 1348, Note_on_c, 0, 77, 127
1, 1352, Note_on_c, 0, 77, 0
1, 1352, Control_c, 0, 10, 72
1, 1352, Note_on_c, 0, 72, 127
1, 1356, Note_on_c, 0, 72, 0
1, 1356, Control_c, 0, 10, 68
1, 1356, Note_on_c, 0, 68, 127
1, 1360, Note_on_c, 0, 68, 0
1, 1360, Control_c, 0, 10, 65
1, 1360, Note_on_c, 0, 65, 127
1, 1364, Note_on_c, 0, 65, 0
1, 1364, Control_c, 0, 10, 72
1, 1364, Note_on_c, 0, 72, 127
1, 1368, Note_on_c, 0, 72, 0
1, 1368, Control_c, 0, 10, 68
1, 1368, Note_on_c, 0, 68, 127
1, 1372, Note_on_c, 0, 68, 0
1, 1372, Control_c, 0, 10, 65
1, 1372, Note_on_c, 0, 65, 127
1, 1376, Note_on_c, 0, 65, 0
1, 1376, Control_c, 0, 10, 60
1, 1376, Note_on_c, 0, 60, 127
1, 1380, Note_on_c, 0, 60, 0
1, 1380, Control_c, 0, 10, 68
1, 1380, Note_on_c, 0, 68, 127
1, 1384, Note_on_c, 0, 68, 0
1, 1384, Control_c, 0, 10, 65
1, 1384, Note_on_c, 0, 65, 127
1, 1388, Note_on_c, 0, 65, 0
1, 1388, Control_c, 0, 10, 60
1, 1388, Note_on_c, 0, 60, 127
1, 1392, Note_on_c, 0, 60, 0
1, 1392, Control_c, 0, 10, 56
1, 1392, Note_on_c, 0, 56, 127
1, 1396, Note_on_c, 0, 56, 0
1, 1396, Control_c, 0, 10, 65
1, 1396, Note_on_c, 0, 65, 127
1, 1400, Note_on_c, 0, 65, 0
1, 1400, Control_c, 0, 10, 60
1, 1400, Note_on_c, 0, 60, 127
1, 1404, Note_on_c, 0, 60, 0
1, 1404, Control_c, 0, 10, 56
1, 1404, Note_on_c, 0, 56, 127
1, 1408, Note_on_c, 0, 56, 0
1, 1408, Control_c, 0, 10, 49
1, 1408, Control_c, 0, 10, 37
1, 1408, Note_on_c, 0, 49, 127
1, 1408, Note_on_c, 0, 37, 127
1, 1440, Control_c, 0, 10, 80
1, 1440, Note_on_c, 0, 80, 127
1, 1444, Note_on_c, 0, 80, 0
1, 1444, Control_c, 0, 10, 77
1, 1444, Note_on_c, 0, 77, 127
1, 1448, Note_on_c, 0, 77, 0
1, 1448, Control_c, 0, 10, 76
1, 1448, Note_on_c, 0, 76, 127
1, 1452, Note_on_c, 0, 76, 0
1, 1452, Control_c, 0, 10, 77
1, 1452, Note_on_c, 0, 77, 127
1, 1456, Note_on_c, 0, 77, 0
1, 1456, Control_c, 0, 10, 79
1, 1456, Note_on_c, 0, 79, 127
1, 1460, Note_on_c, 0, 79, 0
1, 1460, Control_c, 0, 10, 77
1, 1460, Note_on_c, 0, 77, 127
1, 1464, Note_on_c, 0, 77, 0
1, 1464, Control_c, 0, 10, 76
1, 1464, Note_on_c, 0, 76, 127
1, 1468, Note_on_c, 0, 76, 0
1, 1468, Control_c, 0, 10, 77
1, 1468, Note_on_c, 0, 77, 127
1, 1472, Note_on_c, 0, 49, 0
1, 1472, Note_on_c, 0, 37, 0
1, 1472, Note_on_c, 0, 77, 0
1, 1472, Control_c, 0, 10, 48
1, 1472, Control_c, 0, 10, 36
1, 1472, Note_on_c, 0, 48, 127
1, 1472, Note_on_c, 0, 36, 127
1, 1504, Control_c, 0, 10, 68
1, 1504, Note_on_c, 0, 68, 127
1, 1508, Note_on_c, 0, 68, 0
1, 1508, Control_c, 0, 10, 65
1, 1508, Note_on_c, 0, 65, 127
1, 1512, Note_on_c, 0, 65, 0
1, 1512, Control_c, 0, 10, 64
1, 1512, Note_on_c, 0, 64, 127
1, 1516, Note_on_c, 0, 64, 0
1, 1516, Control_c, 0, 10, 65
1, 1516, Note_on_c, 0, 65, 127
1, 1520, Note_on_c, 0, 65, 0
1, 1520, Control_c, 0, 10, 67
1, 1520, Note_on_c, 0, 67, 127
1, 1524, Note_on_c, 0, 67, 0
1, 1524, Control_c, 0, 10, 65
1, 1524, Note_on_c, 0, 65, 127
1, 1528, Note_on_c, 0, 65, 0
1, 1528, Control_c, 0, 10, 64
1, 1528, Note_on_c, 0, 64, 127
1, 1532, Note_on_c, 0, 64, 0
1, 1532, Control_c, 0, 10, 65
1, 1532, Note_on_c, 0, 65, 127
1, 1536, Note_on_c, 0, 48, 0
1, 1536, Note_on_c, 0, 36, 0
1, 1536, Note_on_c, 0, 65, 0
1, 1536, Control_c, 0, 10, 35
1, 1536, Control_c, 0, 10, 47
1, 1536, Note_on_c, 0, 35, 127
1, 1536, Note_on_c, 0, 47, 127
1, 1568, Control_c, 0, 10, 86
1, 1568, Note_on_c, 0, 86, 127
1, 1572, Note_on_c, 0, 86, 0
1, 1572, Control_c, 0, 10, 77
1, 1572, Note_on_c, 0, 77, 127
1, 1576, Note_on_c, 0, 77, 0
1, 1576, Control_c, 0, 10, 79
1, 1576, Note_on_c, 0, 79, 127
1, 1580, Note_on_c, 0, 79, 0
1, 1580, Control_c, 0, 10, 80
1, 1580, Note_on_c, 0, 80, 127
1, 1584, Note_on_c, 0, 80, 0
1, 1584, Control_c, 0, 10, 79
1, 1584, Note_on_c, 0, 79, 127
1, 1588, Note_on_c, 0, 79, 0
1, 1588, Control_c, 0, 10, 77
1, 1588, Note_on_c, 0, 77, 127
1, 1592, Note_on_c, 0, 77, 0
1, 1592, Control_c, 0, 10, 75
1, 1592, Note_on_c, 0, 75, 127
1, 1596, Note_on_c, 0, 75, 0
1, 1596, Control_c, 0, 10, 74
1, 1596, Note_on_c, 0, 74, 127
1, 1600, Note_on_c, 0, 35, 0
1, 1600, Note_on_c, 0, 47, 0
1, 1600, Note_on_c, 0, 74, 0
1, 1600, Control_c, 0, 10, 36
1, 1600, Control_c, 0, 10, 48
1, 1600, Control_c, 0, 10, 75
1, 1600, Note_on_c, 0, 36, 127
1, 1600, Note_on_c, 0, 48, 127
1, 1600, Note_on_c, 0, 75, 127
1, 1604, Note_on_c, 0, 75, 0
1, 1604, Control_c, 0, 10, 79
1, 1604, Note_on_c, 0, 79, 127
1, 1608, Note_on_c, 0, 79, 0
1, 1608, Control_c, 0, 10, 84
1, 1608, Note_on_c, 0, 84, 127
1, 1612, Note_on_c, 0, 84, 0
1, 1612, Control_c, 0, 10, 79
1, 1612, Note_on_c, 0, 79, 127
1, 1616, Note_on_c, 0, 36, 0
1, 1616, Note_on_c, 0, 48, 0
1, 1616, Note_on_c, 0, 79, 0
1, 1616, Control_c, 0, 10, 53
1, 1616, Control_c, 0, 10, 82
1, 1616, Note_on_c, 0, 53, 127
1, 1616, Note_on_c, 0, 82, 127
1, 1620, Note_on_c, 0, 82, 0
1, 1620, Control_c, 0, 10, 80
1, 1620, Note_on_c, 0, 80, 127
1, 1624, Note_on_c, 0, 80, 0
1, 1624, Control_c, 0, 10, 79
1, 1624, Note_on_c, 0, 79, 127
1, 1628, Note_on_c, 0, 79, 0
1, 1628, Control_c, 0, 10, 77
1, 1628, Note_on_c, 0, 77, 127
1, 1632, Note_on_c, 0, 53, 0
1, 1632, Note_on_c, 0, 77, 0
1, 1632, Control_c, 0, 10, 55
1, 1632, Control_c, 0, 10, 75
1, 1632, Note_on_c, 0, 55, 127
1, 1632, Note_on_c, 0, 75, 127
1, 1648, Note_on_c, 0, 55, 0
1, 1648, Note_on_c, 0, 75, 0
1, 1648, Control_c, 0, 10, 43
1, 1648, Control_c, 0, 10, 75
1, 1648, Note_on_c, 0, 43, 127
1, 1648, Note_on_c, 0, 75, 127
1, 1650, Note_on_c, 0, 75, 0
1, 1650, Control_c, 0, 10, 74
1, 1650, Note_on_c, 0, 74, 127
1, 1652, Note_on_c, 0, 74, 0
1, 1652, Control_c, 0, 10, 75
1, 1652, Note_on_c, 0, 75, 127
1, 1654, Note_on_c, 0, 75, 0
1, 1654, Control_c, 0, 10, 74
1, 1654, Note_on_c, 0, 74, 127
1, 1656, Note_on_c, 0, 74, 0
1, 1656, Control_c, 0, 10, 75
1, 1656, Note_on_c, 0, 75, 127
1, 1658, Note_on_c, 0, 75, 0
1, 1658, Control_c, 0, 10, 74
1, 1658, Note_on_c, 0, 74, 127
1, 1660, Note_on_c, 0, 74, 0
1, 1660, Control_c, 0, 10, 72
1, 1660, Note_on_c, 0, 72, 127
1, 1662, Note_on_c, 0, 72, 0
1, 1662, Control_c, 0, 10, 74
1, 1662, Note_on_c, 0, 74, 127
1, 1664, Note_on_c, 0, 43, 0
1, 1664, Note_on_c, 0, 74, 0
1, 1664, Control_c, 0, 10, 63
1, 1664, Control_c, 0, 10, 72
1, 1664, Note_on_c, 0, 63, 127
1, 1664, Note_on_c, 0, 72, 127
1, 1668, Control_c, 0, 10, 67
1, 1668, Note_on_c, 0, 67, 127
1, 1672, Note_on_c, 0, 67, 0
1, 1672, Control_c, 0, 10, 79
1, 1672, Note_on_c, 0, 79, 127
1, 1676, Note_on_c, 0, 79, 0
1, 1676, Control_c, 0, 10, 67
1, 1676, Note_on_c, 0, 67, 127
1, 1680, Note_on_c, 0, 63, 0
1, 1680, Note_on_c, 0, 72, 0
1, 1680, Note_on_c, 0, 67, 0
1, 1680, Control_c, 0, 10, 72
1, 1680, Control_c, 0, 10, 63
1, 1680, Note_on_c, 0, 72, 127
1, 1680, Note_on_c, 0, 63, 127
1, 1684, Control_c, 0, 10, 67
1, 1684, Note_on_c, 0, 67, 127
1, 1688, Note_on_c, 0, 67, 0
1, 1688, Control_c, 0, 10, 79
1, 1688, Note_on_c, 0, 79, 127
1, 1692, Note_on_c, 0, 79, 0
1, 1692, Control_c, 0, 10, 67
1, 1692, Note_on_c, 0, 67, 127
1, 1696, Note_on_c, 0, 72, 0
1, 1696, Note_on_c, 0, 63, 0
1, 1696, Note_on_c, 0, 67, 0
1, 1696, Control_c, 0, 10, 71
1, 1696, Control_c, 0, 10, 62
1, 1696, Note_on_c, 0, 71, 127
1, 1696, Note_on_c, 0, 62, 127
1, 1700, Control_c, 0, 10, 67
1, 1700, Note_on_c, 0, 67, 127
1, 1704, Note_on_c, 0, 67, 0
1, 1704, Control_c, 0, 10, 77
1, 1704, Note_on_c, 0, 77, 127
1, 1708, Note_on_c, 0, 77, 0
1, 1708, Control_c, 0, 10, 67
1, 1708, Note_on_c, 0, 67, 127
1, 1712, Note_on_c, 0, 71, 0
1, 1712, Note_on_c, 0, 62, 0
1, 1712, Note_on_c, 0, 67, 0
1, 1712, Control_c, 0, 10, 71
1, 1712, Control_c, 0, 10, 62
1, 1712, Note_on_c, 0, 71, 127
1, 1712, Note_on_c, 0, 62, 127
1, 1716, Control_c, 0, 10, 67
1, 1716, Note_on_c, 0, 67, 127
1, 1720, Note_on_c, 0, 67, 0
1, 1720, Control_c, 0, 10, 77
1, 1720, Note_on_c, 0, 77, 127
1, 1724, Note_on_c, 0, 77, 0
1, 1724, Control_c, 0, 10, 67
1, 1724, Note_on_c, 0, 67, 127
1, 1728, Note_on_c, 0, 71, 0
1, 1728, Note_on_c, 0, 62, 0
1, 1728, Note_on_c, 0, 67, 0
1, 1728, Control_c, 0, 10, 60
1, 1728, Control_c, 0, 10, 70
1, 1728, Note_on_c, 0, 60, 127
1, 1728, Note_on_c, 0, 70, 127
1, 1732, Control_c, 0, 10, 67
1, 1732, Note_on_c, 0, 67, 127
1, 1736, Note_on_c, 0, 67, 0
1, 1736, Control_c, 0, 10, 76
1, 1736, Note_on_c, 0, 76, 127
1, 1740, Note_on_c, 0, 76, 0
1, 1740, Control_c, 0, 10, 67
1, 1740, Note_on_c, 0, 67, 127
1, 1744, Note_on_c, 0, 67, 0
1, 1744, Note_on_c, 0, 60, 0
1, 1744, Note_on_c, 0, 70, 0
1, 1744, Control_c, 0, 10, 60
1, 1744, Control_c, 0, 10, 70
1, 1744, Note_on_c, 0, 60, 127
1, 1744, Note_on_c, 0, 70, 127
1, 1748, Control_c, 0, 10, 67
1, 1748, Note_on_c, 0, 67, 127
1, 1752, Note_on_c, 0, 67, 0
1, 1752, Control_c, 0, 10, 76
1, 1752, Note_on_c, 0, 76, 127
1, 1756, Note_on_c, 0, 76, 0
1, 1756, Control_c, 0, 10, 67
1, 1756, Note_on_c, 0, 67, 127
1, 1760, Note_on_c, 0, 67, 0
1, 1760, Note_on_c, 0, 60, 0
1, 1760, Note_on_c, 0, 70, 0
1, 1760, Control_c, 0, 10, 65
1, 1760, Control_c, 0, 10, 69
1, 1760, Note_on_c, 0, 65, 127
1, 1760, Note_on_c, 0, 69, 127
1, 1764, Control_c, 0, 10, 75
1, 1764, Note_on_c, 0, 75, 127
1, 1768, Note_on_c, 0, 75, 0
1, 1768, Control_c, 0, 10, 84
1, 1768, Note_on_c, 0, 84, 127
1, 1772, Note_on_c, 0, 84, 0
1, 1772, Control_c, 0, 10, 75
1, 1772, Note_on_c, 0, 75, 127
1, 1776, Note_on_c, 0, 65, 0
1, 1776, Note_on_c, 0, 69, 0
1, 1776, Note_on_c, 0, 75, 0
1, 1776, Control_c, 0, 10, 65
1, 1776, Control_c, 0, 10, 69
1, 1776, Note_on_c, 0, 65, 127
1, 1776, Note_on_c, 0, 69, 127
1, 1780, Control_c, 0, 10, 75
1, 1780, Note_on_c, 0, 75, 127
1, 1784, Note_on_c, 0, 75, 0
1, 1784, Control_c, 0, 10, 84
1, 1784, Note_on_c, 0, 84, 127
1, 1788, Note_on_c, 0, 84, 0
1, 1788, Control_c, 0, 10, 75
1, 1788, Note_on_c, 0, 75, 127
1, 1792, Note_on_c, 0, 65, 0
1, 1792, Note_on_c, 0, 69, 0
1, 1792, Note_on_c, 0, 75, 0
1, 1792, Control_c, 0, 10, 58
1, 1792, Control_c, 0, 10, 68
1, 1792, Note_on_c, 0, 58, 127
1, 1792, Note_on_c, 0, 68, 127
1, 1796, Control_c, 0, 10, 65
1, 1796, Note_on_c, 0, 65, 127
1, 1800, Note_on_c, 0, 65, 0
1, 1800, Control_c, 0, 10, 74
1, 1800, Note_on_c, 0, 74, 127
1, 1804, Note_on_c, 0, 74, 0
1, 1804, Control_c, 0, 10, 65
1, 1804, Note_on_c, 0, 65, 127
1, 1808, Note_on_c, 0, 58, 0
1, 1808, Note_on_c, 0, 68, 0
1, 1808, Note_on_c, 0, 65, 0
1, 1808, Control_c, 0, 10, 58
1, 1808, Control_c, 0, 10, 68
1, 1808, Note_on_c, 0, 58, 127
1, 1808, Note_on_c, 0, 68, 127
1, 1812, Control_c, 0, 10, 65
1, 1812, Note_on_c, 0, 65, 127
1, 1816, Note_on_c, 0, 65, 0
1, 1816, Control_c, 0, 10, 74
1, 1816, Note_on_c, 0, 74, 127
1, 1820, Note_on_c, 0, 74, 0
1, 1820, Control_c, 0, 10, 65
1, 1820, Note_on_c, 0, 65, 127
1, 1824, Note_on_c, 0, 58, 0
1, 1824, Note_on_c, 0, 68, 0
1, 1824, Note_on_c, 0, 65, 0
1, 1824, Control_c, 0, 10, 63
1, 1824, Control_c, 0, 10, 67
1, 1824, Note_on_c, 0, 63, 127
1, 1824, Note_on_c, 0, 67, 127
1, 1828, Control_c, 0, 10, 73
1, 1828, Note_on_c, 0, 73, 127
1, 1832, Note_on_c, 0, 73, 0
1, 1832, Control_c, 0, 10, 80
1, 1832, Note_on_c, 0, 80, 127
1, 1836, Note_on_c, 0, 80, 0
1, 1836, Control_c, 0, 10, 73
1, 1836, Note_on_c, 0, 73, 127
1, 1840, Note_on_c, 0, 63, 0
1, 1840, Note_on_c, 0, 67, 0
1, 1840, Note_on_c, 0, 73, 0
1, 1840, Control_c, 0, 10, 63
1, 1840, Control_c, 0, 10, 67
1, 1840, Note_on_c, 0, 63, 127
1, 1840, Note_on_c, 0, 67, 127
1, 1844, Control_c, 0, 10, 73
1, 1844, Note_on_c, 0, 73, 127
1, 1848, Note_on_c, 0, 73, 0
1, 1848, Control_c, 0, 10, 80
1, 1848, Note_on_c, 0, 80, 127
1, 1852, Note_on_c, 0, 80, 0
1, 1852, Control_c, 0, 10, 73
1, 1852, Note_on_c, 0, 73, 127
1, 1856, Note_on_c, 0, 63, 0
1, 1856, Note_on_c, 0, 67, 0
1, 1856, Note_on_c, 0, 73, 0
1, 1856, Control_c, 0, 10, 56
1, 1856, Control_c, 0, 10, 66
1, 1856, Note_on_c, 0, 56, 127
1, 1856, Note_on_c, 0, 66, 127
1, 1860, Control_c, 0, 10, 63
1, 1860, Note_on_c, 0, 63, 127
1, 1864, Note_on_c, 0, 63, 0
1, 1864, Control_c, 0, 10, 72
1, 1864, Note_on_c, 0, 72, 127
1, 1868, Note_on_c, 0, 72, 0
1, 1868, Control_c, 0, 10, 63
1, 1868, Note_on_c, 0, 63, 127
1, 1872, Note_on_c, 0, 56, 0
1, 1872, Note_on_c, 0, 66, 0
1, 1872, Note_on_c, 0, 63, 0
1, 1872, Control_c, 0, 10, 56
1, 1872, Control_c, 0, 10, 66
1, 1872, Note_on_c, 0, 56, 127
1, 1872, Note_on_c, 0, 66, 127
1, 1876, Control_c, 0, 10, 63
1, 1876, Note_on_c, 0, 63, 127
1, 1880, Note_on_c, 0, 63, 0
1, 1880, Control_c, 0, 10, 72
1, 1880, Note_on_c, 0, 72, 127
1, 1884, Note_on_c, 0, 72, 0
1, 1884, Control_c, 0, 10, 63
1, 1884, Note_on_c, 0, 63, 127
1, 1888, Note_on_c, 0, 56, 0
1, 1888, Note_on_c, 0, 66, 0
1, 1888, Note_on_c, 0, 63, 0
1, 1888, Control_c, 0, 10, 54
1, 1888, Control_c, 0, 10, 63
1, 1888, Note_on_c, 0, 54, 127
1, 1888, Note_on_c, 0, 63, 127
1, 1892, Control_c, 0, 10, 72
1, 1892, Note_on_c, 0, 72, 127
1, 1896, Note_on_c, 0, 72, 0
1, 1896, Control_c, 0, 10, 84
1, 1896, Note_on_c, 0, 84, 127
1, 1900, Note_on_c, 0, 84, 0
1, 1900, Control_c, 0, 10, 72
1, 1900, Note_on_c, 0, 72, 127
1, 1904, Note_on_c, 0, 54, 0
1, 1904, Note_on_c, 0, 63, 0
1, 1904, Note_on_c, 0, 72, 0
1, 1904, Control_c, 0, 10, 54
1, 1904, Control_c, 0, 10, 63
1, 1904, Note_on_c, 0, 54, 127
1, 1904, Note_on_c, 0, 63, 127
1, 1908, Control_c, 0, 10, 72
1, 1908, Note_on_c, 0, 72, 127
1, 1912, Note_on_c, 0, 72, 0
1, 1912, Control_c, 0, 10, 84
1, 1912, Note_on_c, 0, 84, 127
1, 1916, Note_on_c, 0, 84, 0
1, 1916, Control_c, 0, 10, 72
1, 1916, Note_on_c, 0, 72, 127
1, 1920, Note_on_c, 0, 54, 0
1, 1920, Note_on_c, 0, 63, 0
1, 1920, Note_on_c, 0, 72, 0
1, 1920, Control_c, 0, 10, 55
1, 1920, Control_c, 0, 10, 63
1, 1920, Note_on_c, 0, 55, 127
1, 1920, Note_on_c, 0, 63, 127
1, 1924, Control_c, 0, 10, 72
1, 1924, Note_on_c, 0, 72, 127
1, 1928, Note_on_c, 0, 72, 0
1, 1928, Control_c, 0, 10, 75
1, 1928, Note_on_c, 0, 75, 127
1, 1932, Note_on_c, 0, 75, 0
1, 1932, Control_c, 0, 10, 79
1, 1932, Note_on_c, 0, 79, 127
1, 1936, Note_on_c, 0, 55, 0
1, 1936, Note_on_c, 0, 63, 0
1, 1936, Note_on_c, 0, 79, 0
1, 1936, Control_c, 0, 10, 84
1, 1936, Note_on_c, 0, 84, 127
1, 1940, Note_on_c, 0, 84, 0
1, 1940, Control_c, 0, 10, 79
1, 1940, Note_on_c, 0, 79, 127
1, 1944, Note_on_c, 0, 79, 0
1, 1944, Control_c, 0, 10, 75
1, 1944, Note_on_c, 0, 75, 127
1, 1948, Note_on_c, 0, 75, 0
1, 1948, Control_c, 0, 10, 72
1, 1948, Note_on_c, 0, 72, 127
1, 1952, Note_on_c, 0, 72, 0
1, 1952, Control_c, 0, 10, 79
1, 1952, Note_on_c, 0, 79, 127
1, 1956, Note_on_c, 0, 79, 0
1, 1956, Control_c, 0, 10, 75
1, 1956, Note_on_c, 0, 75, 127
1, 1960, Note_on_c, 0, 75, 0
1, 1960, Control_c, 0, 10, 72
1, 1960, Note_on_c, 0, 72, 127
1, 1964, Note_on_c, 0, 72, 0
1, 1964, Control_c, 0, 10, 67
1, 1964, Note_on_c, 0, 67, 127
1, 1968, Note_on_c, 0, 67, 0
1, 1968, Control_c, 0, 10, 43
1, 1968, Control_c, 0, 10, 31
1, 1968, Control_c, 0, 10, 77
1, 1968, Note_on_c, 0, 43, 127
1, 1968, Note_on_c, 0, 31, 127
1, 1968, Note_on_c, 0, 77, 127
1, 1972, Note_on_c, 0, 77, 0
1, 1972, Control_c, 0, 10, 74
1, 1972, Note_on_c, 0, 74, 127
1, 1976, Note_on_c, 0, 74, 0
1, 1976, Control_c, 0, 10, 71
1, 1976, Note_on_c, 0, 71, 127
1, 1980, Note_on_c, 0, 71, 0
1, 1980, Control_c, 0, 10, 65
1, 1980, Note_on_c, 0, 65, 127
1, 1984, Note_on_c, 0, 43, 0
1, 1984, Note_on_c, 0, 31, 0
1, 1984, Note_on_c, 0, 65, 0
1, 1984, Control_c, 0, 10, 63
1, 1984, Note_on_c, 0, 63, 127
1, 1988, Control_c, 0, 10, 48
1, 1988, Note_on_c, 0, 48, 127
1, 1992, Note_on_c, 0, 48, 0
1, 1992, Control_c, 0, 10, 51
1, 1992, Note_on_c, 0, 51, 127
1, 1996, Note_on_c, 0, 51, 0
1, 1996, Control_c, 0, 10, 55
1, 1996, Note_on_c, 0, 55, 127
1, 2000, Note_on_c, 0, 55, 0
1, 2000, Control_c, 0, 10, 60
1, 2000, Note_on_c, 0, 63, 0
1, 2000, Note_on_c, 0, 60, 127
1, 2004, Note_on_c, 0, 60, 0
1, 2004, Control_c, 0, 10, 63
1, 2004, Note_on_c, 0, 63, 127
1, 2008, Note_on_c, 0, 63, 0
1, 2008, Control_c, 0, 10, 62
1, 2008, Note_on_c, 0, 62, 127
1, 2012, Note_on_c, 0, 62, 0
1, 2012, Control_c, 0, 10, 60
1, 2012, Note_on_c, 0, 60, 127
1, 2016, Note_on_c, 0, 60, 0
1, 2016, Control_c, 0, 10, 59
1, 2016, Note_on_c, 0, 59, 127
1, 2020, Note_on_c, 0, 59, 0
1, 2020, Control_c, 0, 10, 55
1, 2020, Note_on_c, 0, 55, 127
1, 2024, Note_on_c, 0, 55, 0
1, 2024, Control_c, 0, 10, 59
1, 2024, Note_on_c, 0, 59, 127
1, 2028, Note_on_c, 0, 59, 0
1, 2028, Control_c, 0, 10, 62
1, 2028, Note_on_c, 0, 62, 127
1, 2032, Note_on_c, 0, 62, 0
1, 2032, Control_c, 0, 10, 67
1, 2032, Note_on_c, 0, 67, 127
1, 2036, Note_on_c, 0, 67, 0
1, 2036, Control_c, 0, 10, 65
1, 2036, Note_on_c, 0, 65, 127
1, 2040, Note_on_c, 0, 65, 0
1, 2040, Control_c, 0, 10, 63
1, 2040, Note_on_c, 0, 63, 127
1, 2044, Note_on_c, 0, 63, 0
1, 2044, Control_c, 0, 10, 62
1, 2044, Note_on_c, 0, 62, 127
1, 2048, Note_on_c, 0, 62, 0
1, 2048, Control_c, 0, 10, 63
1, 2048, Note_on_c, 0, 63, 127
1, 2052, Note_on_c, 0, 63, 0
1, 2052, Control_c, 0, 10, 60
1, 2052, Note_on_c, 0, 60, 127
1, 2056, Note_on_c, 0, 60, 0
1, 2056, Control_c, 0, 10, 63
1, 2056, Note_on_c, 0, 63, 127
1, 2060, Note_on_c, 0, 63, 0
1, 2060, Control_c, 0, 10, 67
1, 2060, Note_on_c, 0, 67, 127
1, 2064, Note_on_c, 0, 67, 0
1, 2064, Control_c, 0, 10, 72
1, 2064, Note_on_c, 0, 72, 127
1, 2068, Note_on_c, 0, 72, 0
1, 2068, Control_c, 0, 10, 75
1, 2068, Note_on_c, 0, 75, 127
1, 2072, Note_on_c, 0, 75, 0
1, 2072, Control_c, 0, 10, 74
1, 2072, Note_on_c, 0, 74, 127
1, 2076, Note_on_c, 0, 74, 0
1, 2076, Control_c, 0, 10, 72
1, 2076, Note_on_c, 0, 72, 127
1, 2080, Note_on_c, 0, 72, 0
1, 2080, Control_c, 0, 10, 74
1, 2080, Note_on_c, 0, 74, 127
1, 2084, Note_on_c, 0, 74, 0
1, 2084, Control_c, 0, 10, 72
1, 2084, Note_on_c, 0, 72, 127
1, 2088, Note_on_c, 0, 72, 0
1, 2088, Control_c, 0, 10, 71
1, 2088, Note_on_c, 0, 71, 127
1, 2092, Note_on_c, 0, 71, 0
1, 2092, Control_c, 0, 10, 69
1, 2092, Note_on_c, 0, 69, 127
1, 2096, Note_on_c, 0, 69, 0
1, 2096, Control_c, 0, 10, 67
1, 2096, Note_on_c, 0, 67, 127
1, 2100, Note_on_c, 0, 67, 0
1, 2100, Control_c, 0, 10, 65
1, 2100, Note_on_c, 0, 65, 127
1, 2104, Note_on_c, 0, 65, 0
1, 2104, Control_c, 0, 10, 63
1, 2104, Note_on_c, 0, 63, 127
1, 2108, Note_on_c, 0, 63, 0
1, 2108, Control_c, 0, 10, 62
1, 2108, Note_on_c, 0, 62, 127
1, 2112, Note_on_c, 0, 62, 0
1, 2112, Control_c, 0, 10, 63
1, 2112, Note_on_c, 0, 63, 127
1, 2116, Note_on_c, 0, 63, 0
1, 2116, Control_c, 0, 10, 60
1, 2116, Note_on_c, 0, 60, 127
1, 2120, Note_on_c, 0, 60, 0
1, 2120, Control_c, 0, 10, 63
1, 2120, Note_on_c, 0, 63, 127
1, 2124, Note_on_c, 0, 63, 0
1, 2124, Control_c, 0, 10, 67
1, 2124, Note_on_c, 0, 67, 127
1, 2128, Note_on_c, 0, 67, 0
1, 2128, Control_c, 0, 10, 72
1, 2128, Note_on_c, 0, 72, 127
1, 2132, Note_on_c, 0, 72, 0
1, 2132, Control_c, 0, 10, 75
1, 2132, Note_on_c, 0, 75, 127
1, 2136, Note_on_c, 0, 75, 0
1, 2136, Control_c, 0, 10, 74
1, 2136, Note_on_c, 0, 74, 127
1, 2140, Note_on_c, 0, 74, 0
1, 2140, Control_c, 0, 10, 72
1, 2140, Note_on_c, 0, 72, 127
1, 2144, Note_on_c, 0, 72, 0
1, 2144, Control_c, 0, 10, 71
1, 2144, Note_on_c, 0, 71, 127
1, 2148, Note_on_c, 0, 71, 0
1, 2148, Control_c, 0, 10, 67
1, 2148, Note_on_c, 0, 67, 127
1, 2152, Note_on_c, 0, 67, 0
1, 2152, Control_c, 0, 10, 71
1, 2152, Note_on_c, 0, 71, 127
1, 2156, Note_on_c, 0, 71, 0
1, 2156, Control_c, 0, 10, 74
1, 2156, Note_on_c, 0, 74, 127
1, 2160, Note_on_c, 0, 74, 0
1, 2160, Control_c, 0, 10, 79
1, 2160, Note_on_c, 0, 79, 127
1, 2164, Note_on_c, 0, 79, 0
1, 2164, Control_c, 0, 10, 77
1, 2164, Note_on_c, 0, 77, 127
1, 2168, Note_on_c, 0, 77, 0
1, 2168, Control_c, 0, 10, 75
1, 2168, Note_on_c, 0, 75, 127
1, 2172, Note_on_c, 0, 75, 0
1, 2172, Control_c, 0, 10, 74
1, 2172, Note_on_c, 0, 74, 127
1, 2176, Note_on_c, 0, 74, 0
1, 2176, Control_c, 0, 10, 75
1, 2176, Note_on_c, 0, 75, 127
1, 2180, Note_on_c, 0, 75, 0
1, 2180, Control_c, 0, 10, 72
1, 2180, Note_on_c, 0, 72, 127
1, 2184, Note_on_c, 0, 72, 0
1, 2184, Control_c, 0, 10, 75
1, 2184, Note_on_c, 0, 75, 127
1, 2188, Note_on_c, 0, 75, 0
1, 2188, Control_c, 0, 10, 79
1, 2188, Note_on_c, 0, 79, 127
1, 2192, Note_on_c, 0, 79, 0
1, 2192, Control_c, 0, 10, 84
1, 2192, Note_on_c, 0, 84, 127
1, 2196, Note_on_c, 0, 84, 0
1, 2196, Control_c, 0, 10, 87
1, 2196, Note_on_c, 0, 87, 127
1, 2200, Note_on_c, 0, 87, 0
1, 2200, Control_c, 0, 10, 86
1, 2200, Note_on_c, 0, 86, 127
1, 2201, Tempo, 545454
1, 2202, Tempo, 566037
1, 2204, Note_on_c, 0, 86, 0
1, 2204, Control_c, 0, 10, 83
1, 2204, Note_on_c, 0, 83, 127
1, 2208, Note_on_c, 0, 83, 0
1, 2208, Tempo, 588235
1, 2208, Control_c, 0, 10, 84
1, 2208, Note_on_c, 0, 84, 127
1, 2212, Note_on_c, 0, 84, 0
1, 2212, Tempo, 612244
1, 2212, Control_c, 0, 10, 79
1, 2212, Note_on_c, 0, 79, 127
1, 2215, Tempo, 631578
1, 2216, Note_on_c, 0, 79, 0
1, 2216, Control_c, 0, 10, 75
1, 2216, Note_on_c, 0, 75, 127
1, 2218, Tempo, 659340
1, 2219, Tempo, 659340
1, 2220, Note_on_c, 0, 75, 0
1, 2220, Control_c, 0, 10, 74
1, 2220, Note_on_c, 0, 74, 127
1, 2223, Tempo, 689655
1, 2224, Note_on_c, 0, 74, 0
1, 2224, Control_c, 0, 10, 72
1, 2224, Note_on_c, 0, 72, 127
1, 2226, Tempo, 722891
1, 2228, Note_on_c, 0, 72, 0
1, 2228, Tempo, 750000
1, 2228, Control_c, 0, 10, 67
1, 2228, Note_on_c, 0, 67, 127
1, 2232, Note_on_c, 0, 67, 0
1, 2232, Control_c, 0, 10, 63
1, 2232, Note_on_c, 0, 63, 127
1, 2233, Tempo, 789473
1, 2235, Tempo, 833333
1, 2236, Note_on_c, 0, 63, 0
1, 2236, Control_c, 0, 10, 62
1, 2236, Note_on_c, 0, 62, 127
1, 2237, Tempo, 882352
1, 2240, Note_on_c, 0, 62, 0
1, 2240, Tempo, 937500
1, 2240, Control_c, 0, 10, 60
1, 2240, Note_on_c, 0, 60, 127
1, 2243, Tempo, 983606
1, 2245, Tempo, 1052631
1, 2249, Tempo, 1132075
1, 2254, Tempo, 1200000
1, 2288, Note_on_c, 0, 60, 0
1, 2304, End_track
0, 0, End_of_file
